<svg width="54" height="54" viewBox="0 0 54 54" fill="none" xmlns="http://www.w3.org/2000/svg">
<path d="M50.7764 25.689L45.5625 28.2959L38.8125 15.3693L44.0795 12.7358C44.4752 12.5379 44.9327 12.5034 45.3537 12.6396C45.7746 12.7758 46.1252 13.0719 46.33 13.464L51.5176 23.3985C51.6213 23.5972 51.6844 23.8145 51.7032 24.0378C51.7221 24.2611 51.6962 24.486 51.6272 24.6992C51.5582 24.9124 51.4475 25.1097 51.3014 25.2797C51.1553 25.4496 50.9768 25.5888 50.7764 25.689V25.689Z" stroke="#B99267" stroke-width="2" stroke-linecap="round" stroke-linejoin="round"/>
<path d="M8.43876 28.0694L3.22488 25.4624C3.02444 25.3622 2.84596 25.2231 2.69988 25.0531C2.55379 24.8832 2.44302 24.6858 2.37402 24.4726C2.30503 24.2594 2.27919 24.0346 2.29802 23.8113C2.31686 23.588 2.37998 23.3706 2.48371 23.172L7.67128 13.2375C7.87606 12.8453 8.22666 12.5492 8.64758 12.413C9.06851 12.2768 9.52609 12.3114 9.9218 12.5092L15.1888 15.1427L8.43876 28.0694Z" stroke="#B99267" stroke-width="2" stroke-linecap="round" stroke-linejoin="round"/>
<path d="M45.5625 28.2964L42.1875 32.2447L34.4256 40.0066C34.2195 40.2127 33.9636 40.3619 33.6828 40.4396C33.402 40.5174 33.1058 40.5212 32.8231 40.4505L20.5978 37.3942C20.3685 37.3368 20.1538 37.232 19.9676 37.0864L8.4375 28.0703" stroke="#B99267" stroke-width="2" stroke-linecap="round" stroke-linejoin="round"/>
<path d="M42.1882 32.2441L32.907 25.4941L30.207 27.5191C29.0386 28.3954 27.6174 28.8691 26.157 28.8691C24.6965 28.8691 23.2754 28.3954 22.107 27.5191L20.9635 26.6616C20.7701 26.5165 20.6101 26.3316 20.4944 26.1193C20.3787 25.907 20.3099 25.6724 20.2928 25.4312C20.2756 25.19 20.3105 24.948 20.395 24.7215C20.4796 24.495 20.6118 24.2893 20.7828 24.1183L29.0377 15.8634C29.1944 15.7067 29.3804 15.5824 29.5852 15.4976C29.7899 15.4128 30.0093 15.3691 30.2309 15.3691H38.8132" stroke="#B99267" stroke-width="2" stroke-linecap="round" stroke-linejoin="round"/>
<path d="M15.3076 15.1433L26.1329 11.9874C26.5196 11.8746 26.9339 11.9039 27.3009 12.07L34.5927 15.3694" stroke="#B99267" stroke-width="2" stroke-linecap="round" stroke-linejoin="round"/>
<path d="M23.625 44.9005L17.2675 43.3111C17.0095 43.2466 16.7704 43.122 16.5697 42.9476L11.8125 38.8125" stroke="#B99267" stroke-width="2" stroke-linecap="round" stroke-linejoin="round"/>
</svg>
