<svg width="54" height="54" viewBox="0 0 54 54" fill="none" xmlns="http://www.w3.org/2000/svg">
<path d="M26.9763 15.1875C30.2382 15.1875 32.8826 12.5432 32.8826 9.28125C32.8826 6.01932 30.2382 3.375 26.9763 3.375C23.7144 3.375 21.0701 6.01932 21.0701 9.28125C21.0701 12.5432 23.7144 15.1875 26.9763 15.1875Z" stroke="#B99267" stroke-width="2" stroke-linecap="round" stroke-linejoin="round"/>
<path d="M32.4655 28.4164L39.7948 34.1171C40.2695 34.5918 40.9134 34.8584 41.5847 34.8584C42.256 34.8584 42.8998 34.5918 43.3745 34.1171C43.8492 33.6424 44.1159 32.9985 44.1159 32.3272C44.1159 31.6559 43.8492 31.012 43.3745 30.5373L35.0218 19.7981C34.6305 19.4058 34.1655 19.0947 33.6536 18.8826C33.1417 18.6706 32.5929 18.5618 32.0387 18.5625H21.9137C21.3596 18.5618 20.8108 18.6706 20.2989 18.8826C19.7869 19.0947 19.3219 19.4058 18.9306 19.7981L10.5779 30.5373C10.3429 30.7724 10.1564 31.0514 10.0292 31.3585C9.90202 31.6656 9.83655 31.9948 9.83655 32.3272C9.83655 32.6596 9.90202 32.9888 10.0292 33.2959C10.1564 33.603 10.3429 33.882 10.5779 34.1171C10.813 34.3521 11.092 34.5386 11.3991 34.6658C11.7062 34.793 12.0354 34.8584 12.3678 34.8584C12.7002 34.8584 13.0294 34.793 13.3365 34.6658C13.6436 34.5386 13.9226 34.3521 14.1577 34.1171L21.487 28.4164L15.637 46.8933C15.3532 47.5017 15.3229 48.1979 15.5525 48.8288C15.7821 49.4596 16.2529 49.9734 16.8613 50.2571C17.4697 50.5408 18.166 50.5712 18.7968 50.3416C19.4276 50.112 19.9414 49.6412 20.2251 49.0328L26.9762 38.4076L33.7273 49.0328C34.0119 49.6398 34.5257 50.1092 35.1559 50.3378C35.7862 50.5665 36.4814 50.5357 37.089 50.2524C37.6966 49.9691 38.167 49.4563 38.3969 48.8265C38.6269 48.1967 38.5976 47.5015 38.3155 46.8933L32.4655 28.4164Z" stroke="#B99267" stroke-width="2" stroke-linecap="round" stroke-linejoin="round"/>
</svg>
