<svg width="54" height="54" viewBox="0 0 54 54" fill="none" xmlns="http://www.w3.org/2000/svg">
<path d="M40.5 25.3125H46.2071C46.5205 25.3125 46.8277 25.2252 47.0942 25.0605C47.3608 24.8957 47.5763 24.66 47.7164 24.3797L51.5986 16.6153C51.7915 16.2295 51.8293 15.7845 51.7043 15.3716C51.5793 14.9588 51.301 14.6095 50.9265 14.3955L40.5 8.4375" stroke="#B99267" stroke-width="2" stroke-linecap="round" stroke-linejoin="round"/>
<path d="M13.5 25.3125H7.79295C7.47956 25.3125 7.17236 25.2252 6.90577 25.0605C6.63919 24.8957 6.42375 24.66 6.2836 24.3797L2.40142 16.6153C2.20852 16.2295 2.17068 15.7845 2.29568 15.3716C2.42067 14.9588 2.69902 14.6095 3.07354 14.3955L13.5 8.4375" stroke="#B99267" stroke-width="2" stroke-linecap="round" stroke-linejoin="round"/>
<path d="M33.75 8.4375C33.75 10.2277 33.0388 11.9446 31.773 13.2105C30.5071 14.4763 28.7902 15.1875 27 15.1875C25.2098 15.1875 23.4929 14.4763 22.227 13.2105C20.9612 11.9446 20.25 10.2277 20.25 8.4375H13.5V43.875C13.5 44.3226 13.6778 44.7518 13.9943 45.0682C14.3107 45.3847 14.7399 45.5625 15.1875 45.5625H38.8125C39.2601 45.5625 39.6893 45.3847 40.0057 45.0682C40.3222 44.7518 40.5 44.3226 40.5 43.875V8.4375H33.75Z" stroke="#B99267" stroke-width="2" stroke-linecap="round" stroke-linejoin="round"/>
</svg>
