<?xml version="1.0" encoding="utf-8"?>
<!-- Generator: Adobe Illustrator 25.0.1, SVG Export Plug-In . SVG Version: 6.00 Build 0)  -->
<svg version="1.1" xmlns="http://www.w3.org/2000/svg" xmlns:xlink="http://www.w3.org/1999/xlink" x="0px" y="0px"
	 viewBox="0 0 2000 2000" style="enable-background:new 0 0 2000 2000;" xml:space="preserve">
<style type="text/css">
	.st0{fill:#002E2E;}
	.st1{fill:none;stroke:#B99267;stroke-width:9.8174;stroke-miterlimit:10;}
	.st2{fill:#B99267;}
	.st3{fill:none;stroke:#B99267;stroke-width:23.3542;stroke-miterlimit:10;}
	.st4{fill:none;stroke:#B99267;stroke-width:28.0672;stroke-miterlimit:10;}
</style>
<g id="Логотип">
	<g id="Logo_1_1_">
		<polygon class="st4" points="1348.2,995.7 1175.2,1091.4 987.2,1119.7 740,1050.6 646.1,996.9 654.6,978.4 997.4,228.4 
			1340.2,978.4 		"/>
		<path class="st4" d="M1366.3,1035.4l69.3,151.5c145.9,319.1-87.3,682.1-438.2,682.1s-584.1-363-438.2-682.1l69.3-151.5"/>
		<g>
			<path class="st2" d="M-2.6,674.3c46-4.4,93.1-1.2,139.1,9.2c23,5.3,45.6,12.4,67.7,21.2c2.8,1.1,5.6,2.1,8.3,3.3l8.2,3.6l4.1,1.8
				c1.4,0.6,2.7,1.3,4,1.9l8.1,3.9c2.7,1.3,5.3,2.6,7.9,3.8l7.7,3.9l15.4,7.7c41.1,20.6,82.1,41.5,123,62.5
				c40.9,21.1,81.6,42.4,122.3,63.8c81.3,42.9,162.1,86.7,242.6,131l30,16.5l7,3.7c1.2,0.6,2.3,1.3,3.5,1.8l3.5,1.7l7.1,3.5l1.8,0.9
				l1.8,0.8l3.6,1.6c19.2,8.7,38.9,16.1,59.1,22c20.2,5.9,40.8,10.3,61.5,13.3c20.8,3,41.8,4.5,62.8,4.5c21,0,42-1.5,62.8-4.5
				c20.8-3,41.4-7.3,61.5-13.3c20.2-5.9,39.9-13.3,59.1-22l3.6-1.6l1.8-0.8l1.8-0.9l7.1-3.5l3.5-1.7c1.2-0.6,2.3-1.2,3.5-1.8l7-3.7
				l30-16.5c80.5-44.4,161.3-88.1,242.6-131c20.3-10.8,40.7-21.4,61-32.1c20.4-10.6,40.8-21.2,61.2-31.7
				c40.9-21.1,81.9-41.9,123-62.5l15.4-7.7l7.7-3.9c2.6-1.3,5.1-2.6,7.9-3.8l8.1-3.9c1.4-0.6,2.7-1.3,4-1.9l4.1-1.8l8.2-3.6
				c2.7-1.2,5.5-2.2,8.3-3.3c22.1-8.8,44.8-15.9,67.8-21.2c46-10.4,93.2-13.6,139.1-9.2c-45.9,4.6-90.6,14.9-132.6,30.9
				c-21,8-41.3,17.5-60.8,28.2c-2.4,1.4-4.9,2.6-7.3,4.1l-7.2,4.2l-3.6,2.1c-1.2,0.7-2.3,1.5-3.5,2.2l-7,4.4l-28.9,18.7
				c-38.6,25-77.4,49.7-116.3,74.2c-19.4,12.3-38.9,24.4-58.4,36.6c-19.5,12.1-39,24.3-58.6,36.3c-78.3,48.2-157,95.6-236.1,142.5
				l-14.8,8.8l-7.4,4.4l-3.7,2.2l-0.9,0.5l-1,0.6l-2,1.1l-8.1,4.6c-1.4,0.8-2.7,1.5-4.1,2.3l-4.1,2.2l-8.3,4.3l-2.1,1.1l-2.1,1
				l-4.2,2c-22.4,10.8-45.7,19.9-69.5,27.4c-3,1-6,1.8-9,2.6c-3,0.8-6,1.7-9,2.5l-9.1,2.3c-3,0.7-6,1.6-9.1,2.2l-9.1,2l-4.6,1
				l-4.6,0.8l-9.2,1.7c-1.5,0.3-3.1,0.5-4.6,0.8l-4.6,0.7c-24.7,3.7-49.6,5.6-74.5,5.6c-24.9-0.1-49.9-2-74.5-5.7l-4.6-0.7
				c-1.5-0.2-3.1-0.5-4.6-0.8l-9.2-1.7l-4.6-0.8l-4.6-1l-9.1-2c-3.1-0.6-6.1-1.4-9.1-2.2l-9.1-2.3c-6-1.7-12-3.4-18-5.2
				c-23.8-7.4-47.1-16.5-69.5-27.4l-4.2-2l-2.1-1l-2.1-1.1l-8.3-4.3l-4.1-2.2c-1.4-0.7-2.7-1.5-4.1-2.3l-8.1-4.6l-2-1.1l-1-0.6
				l-0.9-0.5l-3.7-2.2l-7.4-4.4l-14.8-8.8c-79.1-46.8-157.8-94.2-236-142.5c-39.1-24.1-78.2-48.4-117.1-72.9
				c-38.9-24.5-77.7-49.2-116.3-74.2l-28.9-18.7l-7-4.4c-1.2-0.7-2.3-1.5-3.5-2.2l-3.6-2.1l-7.2-4.2c-2.4-1.4-4.9-2.7-7.3-4.1
				c-19.5-10.7-39.8-20.2-60.8-28.2C88,689.1,43.3,678.9-2.6,674.3z"/>
		</g>
	</g>
</g>
<g id="Цвета">
</g>
</svg>
