<?xml version="1.0" encoding="utf-8"?>
<!-- Generator: Adobe Illustrator 25.0.1, SVG Export Plug-In . SVG Version: 6.00 Build 0)  -->
<svg version="1.1" xmlns="http://www.w3.org/2000/svg" xmlns:xlink="http://www.w3.org/1999/xlink" x="0px" y="0px"
	 viewBox="0 0 2000 2000" style="enable-background:new 0 0 2000 2000;" xml:space="preserve">
<style type="text/css">
	.st0{fill:#002E2E;}
	.st1{fill:none;stroke:#B99267;stroke-width:9.8174;stroke-miterlimit:10;}
	.st2{fill:#B99267;}
	.st3{fill:none;stroke:#B99267;stroke-width:23.3542;stroke-miterlimit:10;}
	.st4{fill:none;stroke:#B99267;stroke-width:28.0672;stroke-miterlimit:10;}
</style>
<g id="Логотип">
	<g id="Logo_3_2_">
		<polygon class="st1" points="472.5,981.5 412,1014.9 346.2,1024.8 259.7,1000.7 226.9,981.9 229.9,975.4 349.8,713.1 469.7,975.4 
					"/>
		<path class="st1" d="M478.8,995.3l24.2,53c51,111.6-30.5,238.6-153.3,238.6s-204.3-127-153.3-238.6l24.2-53"/>
		<g>
			<path class="st2" d="M0,869c8-0.8,16.2-0.8,24.3-0.3c8.1,0.6,16.3,1.7,24.3,3.6c8,1.8,16,4.3,23.7,7.4c3.9,1.5,7.7,3.2,11.4,5.1
				l10.9,5.4c28.8,14.4,57.3,29.2,85.8,44.2l21.3,11.3l21.2,11.4c14.2,7.6,28.2,15.4,42.3,23.1l10.5,5.7l4.9,2.5
				c1.6,0.8,3.3,1.7,5,2.4l5.1,2.2c0.8,0.4,1.7,0.8,2.5,1.1l2.6,0.9l5.2,1.9c0.9,0.3,1.7,0.6,2.6,0.8l2.7,0.8
				c14.1,4.1,28.8,6.3,43.5,6.3c14.7,0,29.4-2.2,43.5-6.3l2.7-0.8c0.9-0.2,1.8-0.5,2.6-0.8l5.2-1.9l2.6-0.9c0.9-0.3,1.7-0.7,2.5-1.1
				l5.1-2.2c1.7-0.7,3.3-1.6,5-2.4l4.9-2.5c0.8-0.4,1.7-0.9,2.6-1.4l2.6-1.5l5.3-2.9c14.1-7.7,28.2-15.5,42.3-23.1l21.2-11.4
				l21.3-11.3c28.4-15,57-29.8,85.8-44.2l10.9-5.4c1.9-0.9,3.7-1.8,5.7-2.7c1.9-0.8,3.8-1.7,5.8-2.4c7.7-3.1,15.7-5.6,23.7-7.4
				c8-1.8,16.2-3,24.3-3.6c8.2-0.5,16.3-0.5,24.3,0.3c-8,0.8-16,2-23.7,3.9c-7.8,1.8-15.3,4.1-22.7,6.9c-7.3,2.8-14.5,6.1-21.3,9.9
				c-3.4,1.9-6.7,3.9-10,6l-10.1,6.5c-27,17.5-54.3,34.6-81.6,51.5l-20.6,12.6L489,978.7c-13.7,8.4-27.6,16.5-41.4,24.7l-5.2,3.1
				l-2.6,1.5c-0.9,0.5-1.7,1-2.7,1.5l-5.7,3.1c-1.9,1-3.8,2.1-5.8,3l-5.9,2.7c-1,0.4-2,0.9-3,1.3l-3,1.2l-6.1,2.3
				c-1,0.4-2.1,0.7-3.1,1l-3.1,1c-16.7,5.1-34.1,7.8-51.5,7.9c-17.4-0.1-34.9-2.7-51.5-7.9l-3.1-1c-1-0.3-2.1-0.6-3.1-1l-6.1-2.3
				l-3-1.2c-1-0.4-2-0.9-3-1.3l-5.9-2.7c-2-0.9-3.9-1.9-5.8-3l-5.7-3.1c-1-0.5-1.8-1-2.7-1.5l-2.6-1.5l-5.2-3.1
				c-13.8-8.2-27.6-16.4-41.4-24.7l-20.6-12.5l-20.6-12.6c-27.4-16.9-54.6-34-81.6-51.5l-10.1-6.5c-3.3-2.1-6.6-4.1-10-6
				c-6.8-3.8-13.9-7-21.3-9.9c-7.4-2.8-14.9-5.1-22.7-6.9C16,871.1,8,869.9,0,869z"/>
		</g>
		<path class="st2" d="M907.6,814.3c2.7,0,5.5,0.2,8.2,0.5c10.6,1.4,20.3,5.1,29,11.1c8.7,6,15.6,13.7,20.7,23.1
			c5.1,9.7,7.7,20,7.7,30.8c0,10.8-2.6,21.1-7.7,30.8c-5.1,9.3-12,17-20.6,23c-8.6,6-18.2,9.7-28.7,11.2c-7.7,0.8-15.5,1-23.3,0.6
			c-2.9-0.1-5.8-0.1-8.7-0.1c-11.8,0-23.5,0-35.3,0c0,2.8,0,5.6,0,8.4c0,5.4,0,10.7,0,16.1c0,5.4,0,10.7,0,16.1c0,0.9,0,1.9,0,2.8
			c0,1.8,0,3.6,0,5.4c0.1,4.2,0.5,8.3,1.2,12.4c0.2,1.1,0.5,2.5,0.9,4.1c0.4,1.6,1.1,3.1,1.9,4.4c0.9,1.3,2,1.9,3.5,1.9h-10.4h-18.2
			h-10.3c1.2,0,2.2-0.5,2.9-1.4c0.7-0.9,1.3-1.9,1.7-2.9c1.5-3.7,2.4-7.7,2.7-11.9c0.3-4.2,0.3-8.5,0.2-12.7
			c-0.1-1.8-0.1-3.5-0.1-5.1c0-14.6,0-29.3,0-43.9c0-8.9,0-17.8,0-26.7s0-17.8,0-26.6c0-13.8,0-27.5,0-41.3c0-1,0-2.1,0-3.1
			c0-2.1,0-4.1,0-6.2c-0.1-2.2-0.2-4.4-0.5-6.6c-0.1-0.2-0.1-0.4-0.1-0.6c-0.2-1.5-0.4-3.3-0.9-5.4c-0.4-2.1-1.1-4-2-5.7
			c-0.9-1.7-2.3-2.6-4-2.6h10.3h18.2h10.4c-0.2,0-0.4,0-0.6,0c3.1,0,6.3,0,9.4,0C879.4,814.3,893.5,814.3,907.6,814.3z M848.9,942.3
			h48.9c13.9-3.8,25.4-11.4,34.3-22.7c7.2-9.4,11.5-19.9,12.9-31.5c1.4-11.6-0.2-22.8-5-33.7c-4.4-9.7-10.7-17.8-18.9-24.2
			c-8.2-6.5-17.6-10.7-28.1-12.7c-0.7,0-3.5,0-8.5,0c-5,0-10.5,0-16.6,0s-11.2,0-15.6,0c-1.5,3-2.5,6.3-2.9,9.9
			c-0.4,3.6-0.6,7-0.6,10.4c0,1,0,6.2,0,15.7c0,9.5,0,20.6,0,33.3c0,12.7,0,24.4,0,35.1C848.9,932.2,848.9,939,848.9,942.3z"/>
		<path class="st2" d="M1161.6,985.4c0.1,0.1,0.5,1.1,1.4,3.2c0.9,2.1,2.1,4.7,3.7,7.8c1.5,3.1,3.3,6.2,5.2,9.3
			c1.9,3.1,3.9,5.7,5.8,7.9c2,2.2,3.9,3.2,5.7,3.2h-45.3c1.8,0,2.9-1.1,3.3-3.2c0.4-2.1,0.4-4.8-0.1-7.8c-0.4-3.1-1.1-6.2-1.9-9.3
			c-0.8-3.1-1.9-6.8-3.3-11l-5.3-14.1h-94.3l-5.3,13.9c-0.1,0.1-0.4,1.1-1,3.2c-0.6,2.1-1.4,4.7-2.1,7.8c-0.8,3.1-1.4,6.2-1.8,9.3
			c-0.4,3.1-0.4,5.7,0,7.9c0.4,2.2,1.5,3.2,3.3,3.2h-23.7c1.8,0,3.6-1.1,5.6-3.2c2-2.2,4-4.8,5.9-7.9c1.9-3.1,3.7-6.2,5.3-9.3
			c1.6-3.1,3.3-6.8,5.2-11.1l65.3-171.3h3.3L1161.6,985.4z M1037.7,968.4h91.9l-45.9-120.5L1037.7,968.4z"/>
		<path class="st2" d="M1359.5,992.6c2.3,3.2,4.9,6.8,7.9,10.5c3,3.8,6,7,9,9.8c3,2.8,5.6,4.2,7.6,4.2c-12.2,0-24.4,0-36.6,0
			l-49-71.7c-0.8,0-2.9,0-6.3,0c-3.4,0-7.4,0-12.1,0c-5.2,0-10.5,0-16,0c-6.4,0-11.9,0-16.4,0c0,0.5,0,2.2,0,4.9c0,4.3,0,9.8,0,16.3
			c0,6.5,0,12.5,0,17.9s0,8.7,0.1,9.7c0.1,4.2,0.4,8.3,1.2,12.4c0.2,1.2,0.5,2.6,0.9,4.2c0.4,1.6,1.1,3.1,1.9,4.4c0.9,1.3,2,2,3.5,2
			h-38.8c1.2,0,2.2-0.5,2.9-1.4c0.7-0.9,1.3-1.9,1.7-2.9c1.5-3.7,2.4-7.7,2.7-11.9c0.3-4.2,0.3-8.4,0.2-12.6
			c-0.1-1.8-0.1-3.5-0.1-5.2c0-3.2,0-11.1,0-23.7c0-14.7,0-31.4,0-50.3c0-18.8,0-35.4,0-49.9c0-14.5,0-22.4,0-23.9
			c-0.1-2.2-0.2-4.4-0.5-6.6c-0.1-0.2-0.1-0.4-0.1-0.6c-0.2-1.5-0.4-3.3-0.8-5.4c-0.4-2.1-1.1-4-2-5.7c-1-1.7-2.3-2.6-4.1-2.6
			c19.3-0.1,35.4-0.1,48.2-0.1c12.9,0,24.7,0.2,35.5,0.5c10.8,0.3,17.8,0.7,21.1,1.4c18.9,4.8,33.2,15.8,42.8,32.8
			c4.7,8.8,7.3,18,7.8,27.8c0.5,9.8-1.1,19.3-4.9,28.4c-3.9,9.1-9.4,16.9-16.6,23.4c-7.2,6.5-15.5,11.2-24.9,14.1L1359.5,992.6z
			 M1247.6,942.3h48.9c14.5-4,26.3-12,35.3-24c6.8-9.5,10.8-19.9,12-31.4c1.2-11.4-0.6-22.5-5.3-33.1c-4.4-9.5-10.7-17.5-18.9-23.9
			c-8.2-6.4-17.4-10.5-27.8-12.4c-0.6,0-2.6,0-6.2,0c-2.1,0-4.5,0-7.3,0c-4.1,0-8.4,0-13,0c-5.5,0-10.2,0-14.3,0
			c-1.5,2.9-2.5,6.2-2.9,9.8c-0.4,3.6-0.6,7.1-0.5,10.4c-0.1,1.4-0.1,2.9,0,4.3c0,0.8,0,1.5,0,2.2c0,19.3,0,38.6,0,57.8
			C1247.6,915.5,1247.6,928.9,1247.6,942.3z"/>
		<path class="st2" d="M1416.8,814.3h140.3v0.1v10.3c0-1.6-0.9-2.9-2.7-3.9s-4.1-1.8-6.8-2.3c-2.8-0.5-5.6-0.9-8.5-1.1h-87.5
			c-0.1,0-0.1,0-0.1,0.1v0.1c-0.4,0.7-0.7,1.4-1,2.2c-1.1,3.4-1.8,7.1-2.1,11.4c0,0.5,0,1.1-0.1,1.9c-0.1,0.8-0.1,1.6-0.2,2.4
			c-0.1,0.8-0.1,1.3-0.1,1.6v72.5h70.4v3.1h-70.4v81.6c0,0.3,0,0.8,0.1,1.5c0.1,0.8,0.1,1.6,0.2,2.4c0.1,0.9,0.1,1.5,0.1,1.9
			c0.3,4.3,1,8.1,2.1,11.4c0.3,0.8,0.6,1.6,1,2.3c0.7,1.4,1.6,2.3,2.7,2.9c0.2,0.1,0.4,0.2,0.7,0.2c0.3,0.1,0.5,0.1,0.8,0.1h-38.9
			c1.6,0,2.9-0.9,3.9-2.6c1-1.8,1.7-4,2.3-6.6c0.5-2.7,0.9-5.4,1.1-8.3c0.1-0.9,0.2-1.8,0.2-2.6V834.5c0-0.9-0.1-1.8-0.2-2.7
			c-0.2-2.8-0.6-5.6-1.1-8.2c-0.5-2.7-1.3-4.9-2.3-6.6C1419.7,815.2,1418.4,814.3,1416.8,814.3z"/>
		<path class="st2" d="M1740.3,814.6h18c-1,0-1.9,0.4-2.6,1.1c-0.7,0.7-1.3,1.6-1.8,2.6c-0.5,1-0.8,1.9-1,2.8
			c-1.1,4.3-1.7,8.9-1.9,13.8c-0.2,4.9-0.3,9.8-0.2,14.6c0,1.8,0,3.6,0,5.3c0,4,0,10.7,0,20.3c0,9.5,0,19.7,0,30.5
			c0,10.8,0,20.2,0,28.3c0,8,0,12.8,0,14.4c0,11.3-3.1,22.1-9.2,32.2c-7.4,12-17.2,21.2-29.6,27.6c-12.3,6.4-25.5,9.4-39.5,9.2
			c-3.1-0.1-6.3-0.3-9.4-0.7c-13.4-1.9-25.5-6.7-36.3-14.5c-10.9-7.8-19-17.9-24.4-30.4c-3.8-9.6-5.4-19.5-5-29.8
			c0.1-2.2,0.1-4.3,0-6.5c0-1.1,0-2.2,0-3.3c0-4.7,0-13,0-24.7c0-11.7,0-23.4,0-35.1c0-11.7,0-20.5,0-26.4c0-1.1,0-2.3,0-3.5
			c0.1-2.3,0.1-4.6,0-6.9c-0.1-2.9-0.3-5.7-0.8-8.6c0-0.1,0-0.2,0-0.3c-0.2-1.3-0.5-2.9-0.9-4.8c-0.4-1.8-1.1-3.5-1.9-4.9
			c-0.9-1.5-2.1-2.2-3.8-2.2h38.8c-1.4,0-2.6,0.6-3.4,1.9c-0.9,1.2-1.5,2.6-1.9,4.2c-0.4,1.5-0.7,2.9-0.9,4
			c-0.8,4.2-1.2,8.5-1.2,12.8c-0.1,1.3-0.1,2.7,0,4c0,0.7,0,1.3,0,2c0,4.1,0,10.8,0,19.9c0,9.2,0,18.8,0,29c0,10.2,0,18.9,0,26.2
			c0,7.3,0,11.5,0,12.5c0,0.7,0,1.4,0,2c-0.1,5.1,0,10.2,0.2,15.2c0.2,5,0.7,10,1.5,15.1c1.1,7.3,3.1,14.5,6,21.5
			c2.8,7,7,13.1,12.4,18.4c6.9,6.1,14.9,9.6,24.1,10.6c9.1,1,18.1,0.4,26.8-1.7c16.7-3.9,30.5-12.5,41.5-25.7
			c4.4-5.5,7.9-11.6,10.4-18.2c2.5-6.6,3.7-13.4,3.7-20.5c0-7.6,0-15.2,0-22.8c0-6,0-14.8,0-26.6c0-11.7,0-23,0-33.9
			c0-10.9,0-18.5,0-22.8c0-0.7,0-1.4,0-2.2c0-1.4,0-2.8,0-4.3c-0.1-3-0.4-6-0.9-9c0-0.1,0-0.2-0.1-0.2c-0.2-1.3-0.4-2.8-0.9-4.6
			c-0.4-1.8-1.1-3.3-2-4.8C1743.1,815.3,1741.9,814.6,1740.3,814.6z"/>
		<path class="st2" d="M1999.3,1016.3c0.3,0.1,0.5,0.1,0.7,0.1h-7.5c-0.9,0-1.9,0-2.8,0h-18.2h-10.4c1.1,0,2.1-0.4,2.8-1.3
			c0.7-0.9,1.3-1.8,1.7-2.7c1.5-3.6,2.4-7.4,2.7-11.5c0.3-4,0.3-8.1,0.2-12.2c-0.1-1.5-0.1-3-0.1-4.5c0-2.1,0-6.9,0-14.5
			c0.1-13.7,0.1-31,0.1-51.9c0-21,0-40.1,0-57.4c-0.1-17.3-0.2-27.4-0.3-30.2c-0.1,0.1-0.1,0.1-0.2,0.2v0.1
			c-1.4,2.2-6.1,9.8-14.2,22.8c-8.1,13-17.3,27.9-27.7,44.6c-10.4,16.7-19.7,31.6-27.9,44.8c-8.2,13.2-13.1,21.1-14.6,23.6
			c-0.6-0.9-4.8-7.7-12.7-20.4c-7.9-12.7-17.1-27.5-27.5-44.3c-10.4-16.8-19.7-31.8-27.9-44.9c-8.2-13.1-12.8-20.6-14-22.3
			c0,0.1,0,0.2,0,0.3c0,1.2,0,5.9,0,14c0,10.2,0,23.1,0,38.9c0,15.8,0,31.8,0,47.9c0,16.1,0,29.8,0,41c0,11.2,0,17.3,0,18.2
			c0.1,2.9,0.4,5.9,0.8,8.9c0,0.1,0,0.2,0.1,0.4c0.2,1.4,0.4,3.1,0.9,5c0.4,1.9,1.1,3.7,2,5.2c0.9,1.5,2.2,2.3,3.8,2.3h-18.1
			c1.2,0,2.1-0.4,2.9-1.3c0.7-0.9,1.3-1.8,1.7-2.7c1.3-3,2.1-6.2,2.4-9.6c0.3-3.4,0.5-6.7,0.5-10c0-0.9,0-9.5,0-25.7
			c0-16.3,0-34.7,0-55.2c0-20.5,0-38.6,0-54.2c0-15.6,0-23.9,0-25c-0.2-4.1-0.8-8-1.8-11.9c-0.2-1-0.5-2-1-3.1s-1.1-2-1.8-2.9
			c-0.7-0.8-1.7-1.2-2.9-1.2c1.2,0,3.5,0,6.9,0c3.4,0,6.9,0,10.5,0c3.6,0,6.4,0,8.5,0l78.9,126.9c1.2-1.9,5.7-9.3,13.7-22
			c7.9-12.8,16.9-27.3,27-43.5c10.1-16.2,22.8-36.8,38.3-61.7c1.2,0,3.2,0,5.9,0c2.7,0,5.5,0,8.4,0c2.9,0,6.5,0,10.6,0
			c-1.1,0-2,0.4-2.7,1.2c-0.7,0.8-1.3,1.7-1.8,2.7c-0.5,1-0.8,2-1,2.9c-1.1,3.9-1.7,8-1.9,12.1c-0.2,4.1-0.3,8.3-0.2,12.5
			c0.1,1.7,0.1,3.4,0.1,5c0,3.1,0,10.7,0,22.9c0,14.1,0,30.3,0,48.4c0,18.2,0,34.2,0,48.2c0,13.9,0,21.7,0,23.2
			c0,1.5,0.1,3.1,0.2,4.6c0.2,3.9,0.7,7.8,1.6,11.6c0.3,1.4,0.8,2.9,1.6,4.4C1996.6,1014.9,1997.8,1015.9,1999.3,1016.3z"/>
		<path class="st2" d="M825.4,1167.6V1108H850c2.5,0,4.8,0.5,6.9,1.6c2.1,1.1,3.9,2.5,5.5,4.2c1.6,1.8,2.8,3.7,3.7,5.9
			c0.9,2.2,1.3,4.4,1.3,6.7c0,3.2-0.7,6.2-2.1,9c-1.4,2.8-3.4,5.1-5.9,6.9c-2.5,1.8-5.4,2.7-8.9,2.7h-20.7v22.5H825.4z
			 M829.7,1141.2h20.6c2.6,0,4.9-0.7,6.8-2.1c1.9-1.4,3.4-3.2,4.4-5.5c1-2.2,1.5-4.6,1.5-7.1c0-2.6-0.6-5.1-1.8-7.3
			c-1.2-2.2-2.8-4-4.8-5.3c-2-1.3-4.2-2-6.6-2h-20.1V1141.2z"/>
		<path class="st2" d="M894.8,1108h3.7l25.2,59.6h-4.5L911,1148h-28.8l-8.2,19.7h-4.6L894.8,1108z M909.6,1144.5l-12.9-31.2
			l-13,31.2H909.6z"/>
		<path class="st2" d="M948.7,1168.1c-3.8,0-7.3-0.8-10.4-2.5c-3.1-1.7-5.5-4.1-7.3-7.1l3.4-2c1.4,2.5,3.3,4.5,5.8,5.8
			c2.4,1.4,5.2,2.1,8.4,2.1c4.5,0,8-1.2,10.7-3.5c2.7-2.3,4-5.5,4-9.4c0-2.5-0.5-4.7-1.6-6.7c-1.1-2-2.6-3.5-4.7-4.6
			c-2-1.1-4.5-1.6-7.3-1.6h-5.3v-3.6h5.4c2.2,0,4.1-0.5,5.8-1.6c1.7-1,3-2.4,3.9-4.2c1-1.7,1.5-3.7,1.5-5.8c0-2.3-0.5-4.3-1.6-6
			c-1.1-1.8-2.5-3.2-4.4-4.2c-1.8-1-4-1.5-6.5-1.5c-2.9,0-5.4,0.7-7.6,2c-2.2,1.3-3.9,3.1-5.1,5.5l-3.3-2c1.6-3,3.8-5.3,6.5-6.9
			c2.7-1.7,5.9-2.5,9.6-2.5c3.2,0,6,0.6,8.5,1.9c2.5,1.3,4.4,3.1,5.8,5.4c1.4,2.3,2.1,4.9,2.1,7.9c0,3-0.8,5.8-2.3,8.3
			c-1.5,2.5-3.7,4.3-6.4,5.4c3.5,0.9,6.3,2.8,8.3,5.5c2,2.7,3,5.9,3,9.6c0,3.4-0.8,6.3-2.4,8.8c-1.6,2.5-3.9,4.4-6.7,5.7
			C955.7,1167.4,952.4,1168.1,948.7,1168.1z"/>
		<path class="st2" d="M1022.9,1167.6v-55.8h-26.3l-0.3,13.3c-0.2,8.3-0.8,15.3-1.6,20.7c-0.9,5.5-2.1,9.8-3.6,13
			c-1.5,3.2-3.4,5.4-5.7,6.8c-2.2,1.3-4.8,2-7.8,2v-3.9c2.2,0,4.1-0.6,5.9-1.8c1.7-1.2,3.2-3.3,4.4-6.2c1.2-2.9,2.2-6.9,2.9-12.1
			c0.7-5.1,1.2-11.6,1.4-19.4l0.5-16.3h34.5v59.6H1022.9z"/>
		<path class="st2" d="M1045.4,1167.6V1108h4.3v53.8l39.1-53.8h4v59.6h-4.3v-52.9l-38.7,52.9H1045.4z"/>
		<path class="st2" d="M1155.1,1152.2c0,2.9-0.7,5.5-2.1,7.9c-1.4,2.3-3.4,4.2-5.8,5.5c-2.4,1.4-5.1,2.1-8.1,2.1h-27.9V1108h27.8
			c2.8,0,5.2,0.7,7.3,2.2c2,1.5,3.6,3.4,4.7,5.7c1.1,2.3,1.6,4.7,1.6,7.3c0,3-0.8,5.7-2.3,8.3c-1.5,2.5-3.6,4.4-6.3,5.6
			c3.4,1,6.1,2.9,8.1,5.7C1154.1,1145.5,1155.1,1148.7,1155.1,1152.2z M1115.4,1111.9v23.9h21.8c2.2,0,4.1-0.6,5.8-1.7
			c1.7-1.1,3-2.6,3.9-4.5c1-1.8,1.4-3.7,1.4-5.8c0-2.2-0.4-4.2-1.3-6c-0.9-1.8-2.1-3.2-3.7-4.3c-1.6-1.1-3.4-1.6-5.5-1.6H1115.4z
			 M1150.8,1151.6c0-2.1-0.5-4.1-1.5-6c-1-1.8-2.3-3.4-4-4.5c-1.7-1.2-3.6-1.8-5.7-1.8h-24.2v24.4h23.6c2.2,0,4.2-0.6,6-1.7
			c1.8-1.1,3.2-2.7,4.2-4.5C1150.3,1155.7,1150.8,1153.7,1150.8,1151.6z"/>
		<path class="st2" d="M1215.5,1108v59.6h-4.3v-28.6h-37.6v28.6h-4.3V1108h4.3v27.2h37.6V1108H1215.5z"/>
		<path class="st2" d="M1252.3,1108h3.7l25.2,59.6h-4.5l-8.1-19.7h-28.8l-8.2,19.7h-4.6L1252.3,1108z M1267,1144.5l-12.9-31.2
			l-13,31.2H1267z"/>
		<path class="st2" d="M1290.4,1167.6l16.3-25.6c-4.4-1-7.8-3-10.2-6.1c-2.4-3.1-3.6-6.8-3.6-11c0-3.1,0.8-5.9,2.4-8.5
			c1.6-2.6,3.8-4.6,6.7-6.1c2.9-1.5,6.4-2.3,10.4-2.3h17.2v59.6h-4.3v-25h-11.9c-0.3,0-0.7,0-1.1,0c-0.4,0-0.7,0-1.1-0.1l-15.8,25.1
			H1290.4z M1312.2,1138.8h13v-26.9h-12.6c-3.1,0-5.8,0.5-8.1,1.6c-2.3,1.1-4.1,2.6-5.4,4.6c-1.3,2-1.9,4.2-1.9,6.8
			c0,2.6,0.6,4.9,1.7,7c1.1,2.1,2.8,3.8,5,5C1306.2,1138.1,1308.9,1138.8,1312.2,1138.8z"/>
		<path class="st2" d="M1371.7,1167.6V1108h44v59.6h-4.3v-55.8H1376v55.8H1371.7z"/>
		<path class="st2" d="M1452.6,1108h3.7l25.2,59.6h-4.5l-8.1-19.7H1440l-8.2,19.7h-4.6L1452.6,1108z M1467.3,1144.5l-12.9-31.2
			l-13,31.2H1467.3z"/>
		<path class="st2" d="M1493.1,1167.6V1108h24.5c2.5,0,4.8,0.5,6.9,1.6c2.1,1.1,3.9,2.5,5.5,4.2c1.6,1.8,2.8,3.7,3.7,5.9
			c0.9,2.2,1.3,4.4,1.3,6.7c0,3.2-0.7,6.2-2.1,9c-1.4,2.8-3.4,5.1-5.9,6.9c-2.5,1.8-5.4,2.7-8.9,2.7h-20.7v22.5H1493.1z
			 M1497.3,1141.2h20.6c2.6,0,4.9-0.7,6.8-2.1c1.9-1.4,3.4-3.2,4.4-5.5c1-2.2,1.5-4.6,1.5-7.1c0-2.6-0.6-5.1-1.8-7.3
			c-1.2-2.2-2.8-4-4.8-5.3c-2-1.3-4.2-2-6.6-2h-20.1V1141.2z"/>
		<path class="st2" d="M1571.7,1167.6v-5.5c-3.9-0.2-7.5-0.9-10.9-2.2c-3.4-1.3-6.4-3.1-8.9-5.4c-2.5-2.3-4.5-5-6-8.1
			c-1.5-3.1-2.2-6.6-2.2-10.4c0-4,0.8-7.6,2.3-10.8c1.5-3.2,3.6-5.9,6.2-8.1c2.6-2.3,5.5-4,8.9-5.2c3.4-1.2,6.9-1.9,10.7-2v-4.4h4.1
			v4.4c3.8,0.1,7.4,0.8,10.8,2.1c3.4,1.3,6.4,3.1,8.9,5.4c2.6,2.3,4.6,5,6.1,8.1c1.5,3.2,2.2,6.7,2.2,10.5c0,4-0.8,7.5-2.3,10.7
			c-1.5,3.2-3.6,5.9-6.3,8.1c-2.7,2.3-5.7,4-9,5.2c-3.3,1.2-6.8,1.9-10.5,2.1v5.5H1571.7z M1571.7,1158.4v-44.9
			c-4.4,0.1-8.4,1.1-12,3c-3.6,1.9-6.5,4.5-8.7,7.8c-2.2,3.3-3.2,7.2-3.2,11.8c0,3.5,0.6,6.6,1.9,9.3c1.3,2.7,3.1,5,5.3,7
			c2.2,1.9,4.8,3.4,7.6,4.5C1565.6,1157.7,1568.6,1158.3,1571.7,1158.4z M1575.7,1158.4c4.4-0.1,8.4-1.1,12-3
			c3.6-1.9,6.5-4.5,8.6-7.8c2.2-3.3,3.2-7.2,3.2-11.6c0-3.5-0.6-6.6-1.9-9.3c-1.3-2.7-3-5-5.2-7c-2.2-1.9-4.8-3.4-7.6-4.5
			c-2.9-1.1-5.9-1.7-9-1.7V1158.4z"/>
		<path class="st2" d="M1660.8,1168.1c-5-0.1-9.5-1.3-13.4-3.6c-3.9-2.4-6.9-5.7-9.2-9.9c-2.3-4.3-3.6-9.2-3.8-14.9h-12.3v28h-4.3
			V1108h4.3v27.8h12.3c0.3-5.8,1.6-10.8,4-15c2.4-4.2,5.5-7.4,9.4-9.7c3.9-2.3,8.2-3.4,13.1-3.4c5.4,0,10.1,1.3,14.2,3.9
			c4.1,2.6,7.2,6.2,9.5,10.8c2.3,4.6,3.4,9.8,3.4,15.6c0,6.3-1.2,11.7-3.6,16.2c-2.4,4.5-5.6,7.9-9.7,10.4
			C1670.5,1166.9,1665.9,1168.1,1660.8,1168.1z M1660.9,1164.1c4.6,0,8.6-1.1,12-3.4c3.4-2.3,6-5.4,7.9-9.4c1.9-4,2.8-8.5,2.8-13.5
			c0-5.4-1-10-2.9-13.9c-2-3.9-4.6-7-8.1-9.1c-3.4-2.2-7.3-3.2-11.8-3.2c-4.4,0-8.3,1.1-11.6,3.4c-3.3,2.2-5.9,5.3-7.8,9.3
			c-1.8,4-2.8,8.5-2.8,13.6c0,5.3,1,10,2.9,13.9c1.9,3.9,4.5,7,7.9,9.2C1652.6,1163,1656.5,1164.1,1660.9,1164.1z"/>
		<path class="st2" d="M1756,1167.6v-51.3l-23.4,40.1h-2.9l-23.4-40.1v51.3h-4.3V1108h4.3l24.9,42.7l24.9-42.7h4.3v59.6H1756z"/>
		<path class="st2" d="M1818.2,1163.8v3.9h-39.7V1108h39v3.9h-34.7v23.4h30.3v3.7h-30.3v24.8H1818.2z"/>
		<path class="st2" d="M1832.4,1167.6V1108h24.5c2.5,0,4.8,0.5,6.9,1.6c2.1,1.1,3.9,2.5,5.5,4.2c1.6,1.8,2.8,3.7,3.7,5.9
			c0.9,2.2,1.3,4.4,1.3,6.7c0,3.2-0.7,6.2-2.1,9c-1.4,2.8-3.4,5.1-5.9,6.9c-2.5,1.8-5.4,2.7-8.9,2.7h-20.7v22.5H1832.4z
			 M1836.6,1141.2h20.6c2.6,0,4.9-0.7,6.8-2.1c1.9-1.4,3.4-3.2,4.4-5.5c1-2.2,1.5-4.6,1.5-7.1c0-2.6-0.6-5.1-1.8-7.3
			c-1.2-2.2-2.8-4-4.8-5.3c-2-1.3-4.2-2-6.6-2h-20.1V1141.2z"/>
		<path class="st2" d="M1887.2,1167.6V1108h4.3v53.8l39.1-53.8h4v59.6h-4.3v-52.9l-38.7,52.9H1887.2z"/>
		<path class="st2" d="M1950.6,1167.6l16.3-25.6c-4.4-1-7.8-3-10.2-6.1c-2.4-3.1-3.6-6.8-3.6-11c0-3.1,0.8-5.9,2.4-8.5
			c1.6-2.6,3.8-4.6,6.7-6.1c2.9-1.5,6.4-2.3,10.4-2.3h17.2v59.6h-4.3v-25h-11.9c-0.3,0-0.7,0-1.1,0c-0.4,0-0.7,0-1.1-0.1l-15.8,25.1
			H1950.6z M1972.5,1138.8h13v-26.9h-12.6c-3.1,0-5.8,0.5-8.1,1.6c-2.3,1.1-4.1,2.6-5.4,4.6c-1.3,2-1.9,4.2-1.9,6.8
			c0,2.6,0.6,4.9,1.7,7c1.1,2.1,2.8,3.8,5,5C1966.4,1138.1,1969.1,1138.8,1972.5,1138.8z"/>
	</g>
</g>
<g id="Цвета">
</g>
</svg>
