<?xml version="1.0" encoding="utf-8"?>
<!-- Generator: Adobe Illustrator 25.0.1, SVG Export Plug-In . SVG Version: 6.00 Build 0)  -->
<svg version="1.1" xmlns="http://www.w3.org/2000/svg" xmlns:xlink="http://www.w3.org/1999/xlink" x="0px" y="0px"
	 viewBox="0 0 2000 2000" style="enable-background:new 0 0 2000 2000;" xml:space="preserve">
<style type="text/css">
	.st0{fill:#002E2E;}
	.st1{fill:none;stroke:#B99267;stroke-width:9.8174;stroke-miterlimit:10;}
	.st2{fill:#B99267;}
	.st3{fill:none;stroke:#B99267;stroke-width:23.3542;stroke-miterlimit:10;}
	.st4{fill:none;stroke:#B99267;stroke-width:28.0672;stroke-miterlimit:10;}
</style>
<g id="Логотип">
	<g id="Logo_2_1_">
		<g>
			<path class="st2" d="M290.4,1662.7c3.8,0,7.5,0.2,11.3,0.7c14.6,1.9,27.9,7,39.9,15.3c12,8.3,21.4,18.9,28.5,31.8
				c7,13.4,10.5,27.5,10.5,42.4c0,14.9-3.5,29-10.5,42.4c-7,12.8-16.5,23.4-28.4,31.7c-11.9,8.3-25.1,13.4-39.5,15.4
				c-10.6,1.1-21.4,1.3-32.1,0.9c-4-0.1-7.9-0.1-11.9-0.1c-16.2,0-32.4,0-48.5,0c0,3.8,0,7.7,0,11.6c0,7.4,0,14.8,0,22.1
				c0,7.4,0,14.8,0,22.1c0,1.3,0,2.6,0,3.8c0,2.5,0,5,0,7.5c0.1,5.7,0.6,11.5,1.7,17.1c0.2,1.6,0.6,3.5,1.2,5.7
				c0.6,2.2,1.5,4.2,2.7,6c1.2,1.8,2.8,2.7,4.8,2.7h-14.3h-25h-14.2c1.6,0,3-0.6,4-1.9c1-1.2,1.8-2.6,2.4-4
				c2.1-5.1,3.3-10.6,3.7-16.4c0.4-5.8,0.5-11.6,0.3-17.5c-0.1-2.4-0.1-4.8-0.1-7c0-20.2,0-40.3,0-60.5c0-12.3,0-24.5,0-36.8
				s0-24.5,0-36.7c0-18.9,0-37.9,0-56.8c0-1.4,0-2.8,0-4.3c0-2.8,0-5.7,0-8.5c-0.1-3-0.3-6.1-0.6-9.2c-0.1-0.3-0.1-0.6-0.1-0.9
				c-0.2-2.1-0.6-4.5-1.2-7.5c-0.6-2.9-1.5-5.5-2.8-7.9c-1.3-2.3-3.1-3.5-5.5-3.5h14.2h25H220c-0.3,0-0.6,0-0.9,0c4.3,0,8.7,0,13,0
				C251.5,1662.7,271,1662.7,290.4,1662.7z M209.5,1838.8h67.4c19.2-5.3,34.9-15.6,47.3-31.2c9.9-13,15.8-27.5,17.7-43.4
				c2-16-0.3-31.4-6.9-46.4c-6-13.3-14.7-24.5-26.1-33.4c-11.4-8.9-24.2-14.7-38.6-17.5c-0.9,0-4.8,0-11.7,0c-6.9,0-14.5,0-22.8,0
				c-8.3,0-15.5,0-21.4,0c-2.1,4.1-3.5,8.6-4,13.6c-0.5,4.9-0.8,9.7-0.8,14.3c0,1.3,0,8.6,0,21.6c0,13.1,0,28.3,0,45.8
				c0,17.5,0,33.6,0,48.3C209.5,1824.9,209.5,1834.4,209.5,1838.8z"/>
			<path class="st2" d="M640.1,1898.2c0.1,0.1,0.7,1.6,2,4.5c1.2,2.9,2.9,6.5,5.1,10.8c2.1,4.3,4.5,8.6,7.1,12.8
				c2.6,4.3,5.3,7.9,8,10.9c2.7,3,5.3,4.5,7.8,4.5h-62.4c2.5,0,4-1.5,4.5-4.4c0.5-2.9,0.5-6.5-0.1-10.8c-0.6-4.3-1.5-8.5-2.6-12.8
				c-1.1-4.3-2.6-9.3-4.5-15.1l-7.3-19.5H467.9l-7.2,19.2c-0.1,0.1-0.6,1.6-1.4,4.5c-0.9,2.9-1.9,6.5-2.9,10.8
				c-1.1,4.3-1.9,8.6-2.4,12.8c-0.6,4.3-0.6,7.9,0,10.9c0.6,3,2.1,4.5,4.6,4.5h-32.7c2.4,0,5-1.5,7.8-4.5c2.8-3,5.5-6.6,8.1-10.9
				c2.7-4.3,5.1-8.5,7.2-12.8c2.2-4.3,4.6-9.4,7.2-15.3l89.8-235.7h4.6L640.1,1898.2z M469.5,1874.8h126.5l-63.2-165.9L469.5,1874.8
				z"/>
			<path class="st2" d="M912.4,1908.1c3.1,4.5,6.7,9.3,10.9,14.5c4.1,5.2,8.2,9.7,12.4,13.5c4.2,3.8,7.6,5.7,10.5,5.7
				c-16.8,0-33.6,0-50.4,0l-67.5-98.7c-1.1,0-4,0-8.6,0c-4.6,0-10.1,0-16.6,0c-7.1,0-14.4,0-22,0c-8.9,0-16.4,0-22.6,0
				c0,0.7,0,3,0,6.8c0,6,0,13.4-0.1,22.4c0,9-0.1,17.2-0.1,24.7c0,7.5,0,11.9,0.1,13.4c0.1,5.7,0.6,11.4,1.6,17
				c0.2,1.6,0.6,3.5,1.2,5.7c0.6,2.2,1.5,4.2,2.7,6c1.2,1.8,2.8,2.7,4.8,2.7h-53.4c1.6,0,3-0.6,4-1.9c1-1.3,1.8-2.6,2.4-4
				c2.1-5.1,3.4-10.6,3.7-16.4c0.4-5.8,0.4-11.6,0.2-17.3c-0.1-2.5-0.1-4.9-0.1-7.1c0-4.4,0-15.3,0-32.7c0-20.2,0-43.3,0-69.2
				c0-25.9,0-48.8,0-68.7c0-19.9,0-30.9,0-32.9c-0.1-3-0.3-6.1-0.6-9.2c-0.1-0.3-0.1-0.6-0.1-0.9c-0.2-2.1-0.6-4.5-1.1-7.5
				c-0.5-2.9-1.5-5.5-2.8-7.9c-1.3-2.3-3.2-3.5-5.6-3.5c26.5-0.1,48.7-0.2,66.4-0.2c17.7,0,34,0.2,48.9,0.6
				c14.9,0.4,24.6,1,29.1,1.9c26,6.7,45.7,21.7,58.9,45.1c6.5,12.1,10,24.8,10.7,38.3c0.7,13.5-1.6,26.5-6.8,39.1
				c-5.3,12.5-12.9,23.2-22.9,32.2c-9.9,9-21.4,15.5-34.3,19.4L912.4,1908.1z M758.4,1838.9h67.3c19.9-5.5,36.2-16.5,48.6-33
				c9.4-13.1,14.9-27.4,16.5-43.2c1.6-15.7-0.8-30.9-7.3-45.6c-6.1-13.1-14.8-24.1-26.1-32.9c-11.3-8.8-24-14.5-38.2-17.1
				c-0.8,0-3.6,0-8.5,0c-2.8,0-6.2,0-10,0c-5.6,0-11.6,0-17.9,0c-7.5,0-14.1,0-19.7,0c-2.1,4-3.5,8.6-4,13.5
				c-0.5,5-0.8,9.7-0.7,14.3c-0.1,2-0.1,4,0,6c0,1.1,0,2.1,0,3.1c0,26.5,0,53.1,0,79.6C758.4,1802,758.4,1820.5,758.4,1838.9z"/>
			<path class="st2" d="M991.4,1662.7h193.2v0.1v14.2c0-2.2-1.2-4-3.7-5.4c-2.5-1.4-5.6-2.4-9.4-3.1c-3.8-0.7-7.7-1.2-11.7-1.5
				h-120.5c-0.1,0-0.1,0-0.1,0.1v0.1c-0.5,0.9-1,2-1.4,3.1c-1.5,4.6-2.4,9.8-2.9,15.6c0,0.6,0,1.5-0.1,2.7c-0.1,1.1-0.1,2.2-0.2,3.3
				c-0.1,1.1-0.1,1.8-0.1,2.2v99.8h97v4.3h-97v112.3c0,0.4,0,1.1,0.1,2.1c0.1,1.1,0.1,2.2,0.2,3.4c0.1,1.2,0.1,2,0.1,2.6
				c0.4,5.9,1.4,11.1,2.9,15.8c0.4,1.1,0.9,2.2,1.4,3.2c1,1.9,2.2,3.2,3.7,3.9c0.3,0.1,0.6,0.2,1,0.3c0.4,0.1,0.7,0.1,1.1,0.1h-53.5
				c2.2,0,4-1.2,5.3-3.6c1.3-2.4,2.4-5.4,3.1-9.1c0.7-3.7,1.3-7.5,1.5-11.4c0.1-1.2,0.2-2.4,0.2-3.6v-223.6c0-1.2-0.1-2.4-0.2-3.7
				c-0.3-3.9-0.8-7.7-1.5-11.3c-0.7-3.7-1.8-6.7-3.1-9.1C995.3,1663.9,993.6,1662.7,991.4,1662.7z"/>
			<path class="st2" d="M1436.7,1663.1h24.8c-1.4,0-2.6,0.5-3.6,1.5c-1,1-1.8,2.2-2.4,3.6c-0.6,1.4-1.1,2.7-1.4,3.9
				c-1.5,5.9-2.4,12.2-2.7,19c-0.3,6.8-0.4,13.5-0.2,20.1c0,2.5,0,4.9,0,7.2c0,5.5,0,14.8,0,27.9c0,13.1,0,27.1,0,42s0,27.9,0,38.9
				c0,11,0,17.7,0,19.8c0,15.6-4.2,30.4-12.7,44.3c-10.1,16.5-23.7,29.2-40.7,37.9c-17,8.8-35.1,13-54.3,12.7c-4.3-0.1-8.7-0.4-13-1
				c-18.4-2.6-35.1-9.2-50-19.9c-15-10.7-26.2-24.7-33.6-41.8c-5.2-13.2-7.5-26.9-6.9-41.1c0.1-3,0.1-6,0-8.9c0-1.6,0-3.1,0-4.6
				c0-6.5,0-17.8,0-34c0-16.1,0-32.2,0-48.4c0-16.1,0-28.3,0-36.3c0-1.6,0-3.2,0-4.8c0.1-3.1,0.1-6.3,0-9.5c-0.1-4-0.4-7.9-1.1-11.8
				c0-0.1,0-0.3,0-0.4c-0.3-1.8-0.7-4-1.3-6.5c-0.6-2.5-1.5-4.8-2.7-6.8c-1.2-2-2.9-3-5.2-3h53.4c-2,0-3.6,0.9-4.7,2.6
				s-2.1,3.6-2.7,5.7c-0.6,2.1-1,4-1.2,5.5c-1.1,5.8-1.6,11.7-1.7,17.6c-0.1,1.8-0.1,3.7,0,5.5c0,0.9,0,1.8,0,2.8
				c0,5.7,0,14.8,0,27.5c0,12.6,0,25.9,0,39.9c0,14,0,26,0,36.1c0,10.1,0,15.8,0,17.2c0,1,0,1.9,0,2.8c-0.1,7,0,14,0.3,20.9
				c0.2,6.9,0.9,13.8,2.1,20.8c1.6,10.1,4.3,19.9,8.2,29.5c3.9,9.6,9.6,18,17,25.3c9.5,8.4,20.6,13.2,33.2,14.6
				c12.6,1.3,24.9,0.6,36.9-2.3c23-5.4,42-17.2,57.2-35.3c6.1-7.6,10.9-15.9,14.3-25c3.4-9.1,5.1-18.5,5.1-28.2c0-10.5,0-21,0-31.4
				c0-8.2,0-20.4,0-36.6c0-16.1,0-31.7,0-46.7c0-15,0-25.4,0-31.4c0-1,0-2,0-3c0-1.9,0-3.9,0-5.9c-0.1-4.1-0.5-8.2-1.2-12.3
				c0-0.1,0-0.2-0.1-0.3c-0.2-1.8-0.6-3.9-1.2-6.3c-0.6-2.4-1.5-4.6-2.7-6.5C1440.6,1664.1,1438.9,1663.1,1436.7,1663.1z"/>
			<path class="st2" d="M1793.2,1940.8c0.4,0.1,0.7,0.1,1,0.1h-10.3c-1.3,0-2.6,0-3.8,0h-25h-14.3c1.6,0,2.9-0.6,3.9-1.8
				c1-1.2,1.8-2.4,2.4-3.8c2.1-5,3.4-10.2,3.7-15.8c0.4-5.6,0.5-11.2,0.3-16.8c-0.1-2.1-0.1-4.1-0.1-6.2c0-2.9,0-9.5,0-19.9
				c0.1-18.8,0.1-42.6,0.2-71.5c0-28.8,0-55.2-0.1-79.1c-0.1-23.9-0.2-37.7-0.4-41.6c-0.1,0.1-0.1,0.1-0.2,0.2v0.1
				c-1.9,3.1-8.4,13.5-19.6,31.5c-11.1,17.9-23.9,38.4-38.2,61.4c-14.3,23-27.1,43.6-38.4,61.7c-11.3,18.2-18,29-20.1,32.5
				c-0.8-1.2-6.6-10.6-17.5-28c-10.9-17.5-23.5-37.8-37.8-60.9c-14.3-23.1-27.1-43.7-38.4-61.8c-11.2-18.1-17.7-28.3-19.2-30.7
				c0,0.1,0,0.3,0,0.4c0,1.6,0,8.1,0,19.3c0,14,0,31.8,0,53.6c0,21.7,0,43.7,0,65.9c0,22.2,0,41,0,56.4c0,15.4,0,23.8,0,25.1
				c0.1,4,0.5,8.1,1.1,12.2c0,0.1,0,0.3,0.1,0.5c0.2,1.9,0.6,4.2,1.2,6.9c0.6,2.7,1.5,5.1,2.7,7.2c1.2,2.1,3,3.2,5.3,3.2h-24.9
				c1.6,0,2.9-0.6,3.9-1.8c1-1.2,1.8-2.4,2.3-3.8c1.8-4.1,2.9-8.5,3.4-13.2c0.5-4.7,0.7-9.3,0.7-13.7c0-1.2,0-13,0-35.4
				c0-22.4,0-47.8,0-76c0-28.2,0-53.1-0.1-74.6c0-21.5-0.1-32.9-0.1-34.4c-0.3-5.6-1.1-11.1-2.4-16.4c-0.3-1.3-0.7-2.8-1.4-4.3
				s-1.5-2.8-2.4-3.9c-1-1.1-2.3-1.7-3.9-1.7c1.6,0,4.8,0,9.5,0s9.5,0,14.5,0c5,0,8.9,0,11.7,0l108.7,174.8
				c1.6-2.6,7.9-12.7,18.8-30.3c10.9-17.6,23.3-37.6,37.2-59.9c13.9-22.3,31.5-50.6,52.7-84.9c1.7,0,4.4,0,8.1,0s7.6,0,11.6,0
				c4,0,8.9,0,14.6,0c-1.5,0-2.7,0.5-3.7,1.6c-1,1.1-1.8,2.3-2.4,3.7c-0.6,1.4-1.1,2.8-1.4,4c-1.5,5.4-2.4,10.9-2.7,16.7
				c-0.3,5.7-0.4,11.4-0.2,17.2c0.1,2.3,0.1,4.6,0.1,6.9c0,4.3,0,14.8,0,31.5c0,19.4,0,41.7,0,66.7s0,47.1,0,66.3
				c0,19.2,0,29.8,0,31.9c0,2.1,0.1,4.3,0.2,6.4c0.2,5.4,1,10.7,2.2,16c0.4,1.9,1.2,4,2.2,6.1
				C1789.5,1938.8,1791.1,1940.2,1793.2,1940.8z"/>
		</g>
		<g>
			<polygon class="st3" points="1293.3,696.5 1149.3,776.1 992.9,799.7 787.2,742.2 709,697.5 716.1,682.1 1001.4,58 1286.6,682.1 
							"/>
			<path class="st3" d="M1308.3,729.5l57.6,126.1c121.4,265.5-72.7,567.6-364.6,567.6s-486-302-364.6-567.6l57.6-126.1"/>
			<g>
				<path class="st2" d="M169.3,429c38.2-3.7,77.5-1,115.7,7.7c19.1,4.4,38,10.3,56.4,17.6c2.3,0.9,4.6,1.8,6.9,2.8l6.8,3
					c4.6,1.9,9,4.2,13.5,6.3c2.3,1.1,4.4,2.1,6.5,3.2l6.4,3.2l12.8,6.4c68.4,34.3,136.5,69.4,204.1,105.1
					c67.6,35.7,134.9,72.1,201.9,109l24.9,13.7l5.8,3.1c1,0.5,1.9,1,2.9,1.5l3,1.4l5.9,2.9c1.9,1,4,1.8,6,2.7
					c16,7.2,32.4,13.4,49.2,18.3c16.8,4.9,33.9,8.6,51.2,11.1c17.3,2.5,34.8,3.8,52.2,3.8c17.5,0,34.9-1.3,52.2-3.8
					c17.3-2.5,34.4-6.1,51.2-11.1c16.8-4.9,33.2-11.1,49.1-18.3c2-0.9,4-1.7,6-2.7l5.9-2.9l3-1.4c1-0.5,1.9-1,2.9-1.5l5.8-3.1
					l24.9-13.7c67-36.9,134.2-73.3,201.8-109c33.8-17.9,67.7-35.6,101.7-53.1c34-17.5,68.1-34.9,102.4-52l12.8-6.4l6.4-3.2
					c2.1-1.1,4.3-2.1,6.5-3.2c4.5-2.1,8.9-4.4,13.5-6.3l6.8-3c2.3-1,4.6-1.9,6.9-2.8c18.4-7.3,37.3-13.2,56.4-17.6
					c38.3-8.7,77.5-11.4,115.8-7.7c-38.2,3.8-75.4,12.4-110.3,25.7c-17.5,6.7-34.4,14.6-50.6,23.5c-2,1.1-4.1,2.2-6.1,3.4l-6,3.5
					c-4,2.3-7.8,4.9-11.8,7.3l-24,15.6c-32.1,20.8-64.4,41.4-96.8,61.8c-32.4,20.4-64.8,40.6-97.4,60.7
					c-65.1,40.1-130.6,79.6-196.4,118.5l-12.3,7.3l-6.2,3.6l-3.1,1.8l-0.8,0.5l-0.8,0.5l-1.7,1l-6.8,3.8c-1.1,0.6-2.2,1.3-3.4,1.9
					l-3.4,1.8l-6.9,3.6c-2.3,1.2-4.6,2.3-7,3.4c-18.6,9-38,16.6-57.8,22.8c-19.8,6.1-40.1,10.7-60.6,13.8c-20.5,3.1-41.3,4.6-62,4.7
					c-20.8-0.1-41.5-1.6-62-4.7c-2.6-0.4-5.1-0.7-7.7-1.2L924,812l-3.8-0.7l-3.8-0.8l-7.6-1.7c-2.5-0.5-5-1.2-7.6-1.8l-7.5-1.9
					c-5-1.4-10-2.8-14.9-4.3c-19.8-6.2-39.2-13.7-57.8-22.8c-2.3-1.1-4.7-2.2-7-3.4l-6.9-3.6l-3.4-1.8c-1.1-0.6-2.3-1.3-3.4-1.9
					l-6.8-3.8l-1.7-1l-0.8-0.5l-0.8-0.5l-3.1-1.8l-6.2-3.7l-12.3-7.3c-65.8-39-131.3-78.4-196.4-118.6
					c-65.1-40.1-129.9-80.9-194.2-122.4l-24-15.5c-3.9-2.4-7.7-5-11.8-7.3l-6-3.5c-2-1.2-4-2.2-6.1-3.4
					c-16.2-8.9-33.1-16.8-50.6-23.5C244.7,441.4,207.5,432.8,169.3,429z"/>
			</g>
		</g>
	</g>
</g>
<g id="Цвета">
</g>
</svg>
